<svg width="325" height="325" viewBox="0 0 325 325" fill="none" xmlns="http://www.w3.org/2000/svg">
<path d="M409 132.5C409 238.815 317.442 325 204.5 325C91.5578 325 0 238.815 0 132.5C0 26.1852 91.5578 -60 204.5 -60C317.442 -60 409 26.1852 409 132.5Z" fill="#FF4700"/>
<path d="M67.3008 130.418H64.6523L62.4141 125.039H65.8945L67.3008 130.418ZM71.7422 130.418H69.0938L66.8438 125.039H70.3242L71.7422 130.418ZM80.918 141.363C79.5977 141.363 78.4023 141.098 77.332 140.566C76.2695 140.035 75.4336 139.277 74.8242 138.293C74.2148 137.309 73.9102 136.16 73.9102 134.848V125.062H77.6133V134.578C77.6133 135.234 77.7422 135.82 78 136.336C78.2578 136.852 78.6328 137.258 79.125 137.555C79.625 137.852 80.2227 138 80.918 138C81.5977 138 82.1836 137.852 82.6758 137.555C83.1758 137.258 83.5547 136.852 83.8125 136.336C84.0703 135.82 84.1992 135.234 84.1992 134.578V125.062H87.9141V134.848C87.9141 136.105 87.625 137.23 87.0469 138.223C86.4688 139.207 85.6484 139.977 84.5859 140.531C83.5312 141.086 82.3086 141.363 80.918 141.363ZM90.9375 125.062H94.1836L101.777 134.953V125.062H105.492V141H102.281L94.6641 131.098H94.6523V141H90.9375V125.062ZM113.004 125.051H116.918L121.242 136.125L121.301 136.113L125.625 125.051H129.551L122.941 141H119.602L113.004 125.051ZM131.297 125.062H135.012V141H131.297V125.062ZM149.344 141L148.312 138.41H141.668L140.637 141H136.711L143.25 125.051H146.73L153.27 141H149.344ZM142.887 135.328H147.094L145.113 130.348L145.008 129.855H144.973L144.867 130.348L142.887 135.328ZM156.645 137.695C157.324 137.695 157.863 137.488 158.262 137.074C158.668 136.66 158.871 136.09 158.871 135.363V125.062H162.562V135.586C162.562 136.727 162.305 137.703 161.789 138.516C161.281 139.328 160.578 139.945 159.68 140.367C158.781 140.789 157.762 141 156.621 141H153.832V137.695H156.645ZM165.562 125.062H176.801V128.355H169.277V131.367H175.734V134.461H169.277V137.695H176.906V141H165.562V125.062ZM191.449 125.062C193.137 125.062 194.625 125.395 195.914 126.059C197.211 126.723 198.215 127.656 198.926 128.859C199.637 130.062 199.992 131.449 199.992 133.02C199.992 134.598 199.637 135.992 198.926 137.203C198.223 138.406 197.227 139.34 195.938 140.004C194.656 140.668 193.172 141 191.484 141H184.992V125.062H191.449ZM191.355 137.707C192.379 137.707 193.258 137.523 193.992 137.156C194.727 136.781 195.285 136.246 195.668 135.551C196.059 134.855 196.254 134.027 196.254 133.066C196.254 132.113 196.066 131.285 195.691 130.582C195.316 129.871 194.758 129.324 194.016 128.941C193.281 128.551 192.391 128.355 191.344 128.355H188.66V137.707H191.355ZM202.242 125.062H213.48V128.355H205.957V131.367H212.414V134.461H205.957V137.695H213.586V141H202.242V125.062ZM223.09 128.531L220.406 129.527L220.395 126.293L223.734 125.051H226.805V141H223.09V128.531ZM236.074 141.387C234.527 141.387 233.227 141.016 232.172 140.273C231.125 139.531 230.344 138.535 229.828 137.285C229.32 136.035 229.066 134.637 229.066 133.09C229.066 131.512 229.336 130.086 229.875 128.812C230.414 127.539 231.211 126.531 232.266 125.789C233.32 125.047 234.586 124.676 236.062 124.676C237.68 124.676 239.012 125.059 240.059 125.824C241.113 126.59 241.879 127.602 242.355 128.859C242.84 130.117 243.082 131.508 243.082 133.031C243.082 134.586 242.82 135.996 242.297 137.262C241.781 138.527 240.996 139.531 239.941 140.273C238.887 141.016 237.598 141.387 236.074 141.387ZM236.074 137.988C236.746 137.988 237.328 137.785 237.82 137.379C238.32 136.973 238.703 136.398 238.969 135.656C239.234 134.906 239.367 134.031 239.367 133.031C239.367 132.039 239.234 131.172 238.969 130.43C238.711 129.68 238.332 129.102 237.832 128.695C237.34 128.281 236.746 128.074 236.051 128.074C235.395 128.074 234.82 128.277 234.328 128.684C233.836 129.09 233.453 129.672 233.18 130.43C232.914 131.18 232.781 132.055 232.781 133.055C232.781 134.047 232.914 134.918 233.18 135.668C233.445 136.41 233.824 136.984 234.316 137.391C234.816 137.789 235.402 137.988 236.074 137.988ZM251.332 141.387C249.785 141.387 248.484 141.016 247.43 140.273C246.383 139.531 245.602 138.535 245.086 137.285C244.578 136.035 244.324 134.637 244.324 133.09C244.324 131.512 244.594 130.086 245.133 128.812C245.672 127.539 246.469 126.531 247.523 125.789C248.578 125.047 249.844 124.676 251.32 124.676C252.938 124.676 254.27 125.059 255.316 125.824C256.371 126.59 257.137 127.602 257.613 128.859C258.098 130.117 258.34 131.508 258.34 133.031C258.34 134.586 258.078 135.996 257.555 137.262C257.039 138.527 256.254 139.531 255.199 140.273C254.145 141.016 252.855 141.387 251.332 141.387ZM251.332 137.988C252.004 137.988 252.586 137.785 253.078 137.379C253.578 136.973 253.961 136.398 254.227 135.656C254.492 134.906 254.625 134.031 254.625 133.031C254.625 132.039 254.492 131.172 254.227 130.43C253.969 129.68 253.59 129.102 253.09 128.695C252.598 128.281 252.004 128.074 251.309 128.074C250.652 128.074 250.078 128.277 249.586 128.684C249.094 129.09 248.711 129.672 248.438 130.43C248.172 131.18 248.039 132.055 248.039 133.055C248.039 134.047 248.172 134.918 248.438 135.668C248.703 136.41 249.082 136.984 249.574 137.391C250.074 137.789 250.66 137.988 251.332 137.988ZM266.59 141.387C265.043 141.387 263.742 141.016 262.688 140.273C261.641 139.531 260.859 138.535 260.344 137.285C259.836 136.035 259.582 134.637 259.582 133.09C259.582 131.512 259.852 130.086 260.391 128.812C260.93 127.539 261.727 126.531 262.781 125.789C263.836 125.047 265.102 124.676 266.578 124.676C268.195 124.676 269.527 125.059 270.574 125.824C271.629 126.59 272.395 127.602 272.871 128.859C273.355 130.117 273.598 131.508 273.598 133.031C273.598 134.586 273.336 135.996 272.812 137.262C272.297 138.527 271.512 139.531 270.457 140.273C269.402 141.016 268.113 141.387 266.59 141.387ZM266.59 137.988C267.262 137.988 267.844 137.785 268.336 137.379C268.836 136.973 269.219 136.398 269.484 135.656C269.75 134.906 269.883 134.031 269.883 133.031C269.883 132.039 269.75 131.172 269.484 130.43C269.227 129.68 268.848 129.102 268.348 128.695C267.855 128.281 267.262 128.074 266.566 128.074C265.91 128.074 265.336 128.277 264.844 128.684C264.352 129.09 263.969 129.672 263.695 130.43C263.43 131.18 263.297 132.055 263.297 133.055C263.297 134.047 263.43 134.918 263.695 135.668C263.961 136.41 264.34 136.984 264.832 137.391C265.332 137.789 265.918 137.988 266.59 137.988ZM62.3203 146.062H65.5898L70.5469 152.918V152.906L75.5742 146.062H78.8086V162H75.1055V151.98L71.0156 157.711H70.0781L66.0352 151.945V162H62.3203V146.062ZM82.0781 146.062H85.793V162H82.0781V146.062ZM89.0625 146.062H92.7773V158.695H99.4688V162H89.0625V146.062ZM101.578 146.062H105.293V158.695H111.984V162H101.578V146.062ZM125.156 162L124.125 159.41H117.48L116.449 162H112.523L119.062 146.051H122.543L129.082 162H125.156ZM118.699 156.328H122.906L120.926 151.348L120.82 150.855H120.785L120.68 151.348L118.699 156.328ZM136.266 162.398C134.727 162.398 133.453 162.145 132.445 161.637C131.445 161.129 130.715 160.473 130.254 159.668C129.801 158.855 129.574 157.988 129.574 157.066H133.289C133.289 157.738 133.547 158.277 134.062 158.684C134.586 159.082 135.316 159.281 136.254 159.281C137.27 159.281 138.008 159.133 138.469 158.836C138.93 158.539 139.16 158.082 139.16 157.465C139.16 157.105 139.039 156.805 138.797 156.562C138.562 156.32 138.219 156.117 137.766 155.953C137.312 155.781 136.711 155.609 135.961 155.438C134.828 155.164 133.836 154.848 132.984 154.488C132.141 154.129 131.426 153.613 130.84 152.941C130.262 152.27 129.973 151.41 129.973 150.363C129.973 149.426 130.199 148.605 130.652 147.902C131.113 147.191 131.805 146.641 132.727 146.25C133.648 145.859 134.781 145.664 136.125 145.664C137.492 145.664 138.641 145.867 139.57 146.273C140.508 146.68 141.207 147.262 141.668 148.02C142.137 148.77 142.371 149.656 142.371 150.68H138.656C138.656 150.172 138.449 149.75 138.035 149.414C137.629 149.07 136.977 148.898 136.078 148.898C134.484 148.898 133.688 149.395 133.688 150.387C133.688 150.723 133.809 151.012 134.051 151.254C134.293 151.488 134.672 151.695 135.188 151.875C135.703 152.047 136.391 152.215 137.25 152.379C139.023 152.738 140.41 153.316 141.41 154.113C142.418 154.902 142.922 156.023 142.922 157.477C142.922 158.516 142.645 159.406 142.09 160.148C141.535 160.891 140.758 161.453 139.758 161.836C138.758 162.211 137.594 162.398 136.266 162.398ZM158.484 162.363C156.938 162.363 155.512 161.992 154.207 161.25C152.902 160.5 151.867 159.484 151.102 158.203C150.344 156.922 149.965 155.523 149.965 154.008C149.965 152.484 150.344 151.086 151.102 149.812C151.867 148.531 152.902 147.52 154.207 146.777C155.512 146.035 156.938 145.664 158.484 145.664C159.664 145.664 160.816 145.906 161.941 146.391C163.066 146.867 164.031 147.609 164.836 148.617C165.641 149.617 166.152 150.852 166.371 152.32H162.586C162.32 151.203 161.816 150.383 161.074 149.859C160.332 149.328 159.434 149.062 158.379 149.062C157.512 149.062 156.719 149.266 156 149.672C155.289 150.07 154.723 150.645 154.301 151.395C153.887 152.145 153.68 153.02 153.68 154.02C153.68 155.043 153.887 155.93 154.301 156.68C154.723 157.422 155.289 157.988 156 158.379C156.719 158.77 157.512 158.965 158.379 158.965C159.426 158.965 160.32 158.703 161.062 158.18C161.805 157.648 162.309 156.828 162.574 155.719H166.371C166.152 157.188 165.641 158.422 164.836 159.422C164.039 160.422 163.078 161.164 161.953 161.648C160.828 162.125 159.672 162.363 158.484 162.363ZM176.285 162.363C174.715 162.363 173.266 161.992 171.938 161.25C170.609 160.5 169.555 159.484 168.773 158.203C168 156.922 167.613 155.523 167.613 154.008C167.613 152.484 168 151.086 168.773 149.812C169.555 148.539 170.609 147.531 171.938 146.789C173.266 146.039 174.715 145.664 176.285 145.664C177.848 145.664 179.293 146.039 180.621 146.789C181.949 147.531 183 148.539 183.773 149.812C184.555 151.086 184.945 152.484 184.945 154.008C184.945 155.523 184.555 156.922 183.773 158.203C183 159.484 181.949 160.5 180.621 161.25C179.293 161.992 177.848 162.363 176.285 162.363ZM176.285 158.965C177.199 158.965 178.031 158.754 178.781 158.332C179.539 157.902 180.137 157.312 180.574 156.562C181.02 155.805 181.242 154.957 181.242 154.02C181.242 153.074 181.02 152.227 180.574 151.477C180.137 150.719 179.539 150.129 178.781 149.707C178.031 149.277 177.199 149.062 176.285 149.062C175.371 149.062 174.535 149.277 173.777 149.707C173.02 150.129 172.422 150.719 171.984 151.477C171.547 152.227 171.328 153.074 171.328 154.02C171.328 154.957 171.547 155.805 171.984 156.562C172.43 157.312 173.031 157.902 173.789 158.332C174.547 158.754 175.379 158.965 176.285 158.965ZM187.195 146.062H190.465L195.422 152.918V152.906L200.449 146.062H203.684V162H199.98V151.98L195.891 157.711H194.953L190.91 151.945V162H187.195V146.062ZM206.953 146.062H210.668V162H206.953V146.062ZM213.938 146.062H225.176V149.355H217.652V152.367H224.109V155.461H217.652V158.695H225.281V162H213.938V146.062ZM227.602 146.062H230.848L238.441 155.953V146.062H242.156V162H238.945L231.328 152.098H231.316V162H227.602V146.062ZM244.512 159.258L252.645 149.156H245.004V146.062H257.555L257.543 148.746L249.398 158.895H257.824V162H244.559L244.512 159.258ZM271.312 162L270.281 159.41H263.637L262.605 162H258.68L265.219 146.051H268.699L275.238 162H271.312ZM264.855 156.328H269.062L267.082 151.348L266.977 150.855H266.941L266.836 151.348L264.855 156.328ZM84.5273 183.363C82.9805 183.363 81.5547 182.992 80.25 182.25C78.9453 181.5 77.9102 180.484 77.1445 179.203C76.3867 177.922 76.0078 176.523 76.0078 175.008C76.0078 173.484 76.3867 172.086 77.1445 170.812C77.9102 169.531 78.9453 168.52 80.25 167.777C81.5547 167.035 82.9805 166.664 84.5273 166.664C85.707 166.664 86.8594 166.906 87.9844 167.391C89.1094 167.867 90.0742 168.609 90.8789 169.617C91.6836 170.617 92.1953 171.852 92.4141 173.32H88.6289C88.3633 172.203 87.8594 171.383 87.1172 170.859C86.375 170.328 85.4766 170.062 84.4219 170.062C83.5547 170.062 82.7617 170.266 82.043 170.672C81.332 171.07 80.7656 171.645 80.3438 172.395C79.9297 173.145 79.7227 174.02 79.7227 175.02C79.7227 176.043 79.9297 176.93 80.3438 177.68C80.7656 178.422 81.332 178.988 82.043 179.379C82.7617 179.77 83.5547 179.965 84.4219 179.965C85.4688 179.965 86.3633 179.703 87.1055 179.18C87.8477 178.648 88.3516 177.828 88.6172 176.719H92.4141C92.1953 178.188 91.6836 179.422 90.8789 180.422C90.082 181.422 89.1211 182.164 87.9961 182.648C86.8711 183.125 85.7148 183.363 84.5273 183.363ZM102.328 183.363C100.758 183.363 99.3086 182.992 97.9805 182.25C96.6523 181.5 95.5977 180.484 94.8164 179.203C94.043 177.922 93.6562 176.523 93.6562 175.008C93.6562 173.484 94.043 172.086 94.8164 170.812C95.5977 169.539 96.6523 168.531 97.9805 167.789C99.3086 167.039 100.758 166.664 102.328 166.664C103.891 166.664 105.336 167.039 106.664 167.789C107.992 168.531 109.043 169.539 109.816 170.812C110.598 172.086 110.988 173.484 110.988 175.008C110.988 176.523 110.598 177.922 109.816 179.203C109.043 180.484 107.992 181.5 106.664 182.25C105.336 182.992 103.891 183.363 102.328 183.363ZM102.328 179.965C103.242 179.965 104.074 179.754 104.824 179.332C105.582 178.902 106.18 178.312 106.617 177.562C107.062 176.805 107.285 175.957 107.285 175.02C107.285 174.074 107.062 173.227 106.617 172.477C106.18 171.719 105.582 171.129 104.824 170.707C104.074 170.277 103.242 170.062 102.328 170.062C101.414 170.062 100.578 170.277 99.8203 170.707C99.0625 171.129 98.4648 171.719 98.0273 172.477C97.5898 173.227 97.3711 174.074 97.3711 175.02C97.3711 175.957 97.5898 176.805 98.0273 177.562C98.4727 178.312 99.0742 178.902 99.832 179.332C100.59 179.754 101.422 179.965 102.328 179.965ZM113.238 167.062H116.484L124.078 176.953V167.062H127.793V183H124.582L116.965 173.098H116.953V183H113.238V167.062ZM143.578 183.363C142.258 183.363 141.062 183.098 139.992 182.566C138.93 182.035 138.094 181.277 137.484 180.293C136.875 179.309 136.57 178.16 136.57 176.848V167.062H140.273V176.578C140.273 177.234 140.402 177.82 140.66 178.336C140.918 178.852 141.293 179.258 141.785 179.555C142.285 179.852 142.883 180 143.578 180C144.258 180 144.844 179.852 145.336 179.555C145.836 179.258 146.215 178.852 146.473 178.336C146.73 177.82 146.859 177.234 146.859 176.578V167.062H150.574V176.848C150.574 178.105 150.285 179.23 149.707 180.223C149.129 181.207 148.309 181.977 147.246 182.531C146.191 183.086 144.969 183.363 143.578 183.363ZM153.598 167.062H156.844L164.438 176.953V167.062H168.152V183H164.941L157.324 173.098H157.312V183H153.598V167.062ZM184.078 167.062C185.18 167.062 186.164 167.301 187.031 167.777C187.906 168.246 188.59 168.902 189.082 169.746C189.574 170.582 189.82 171.527 189.82 172.582C189.82 173.707 189.578 174.699 189.094 175.559C188.609 176.418 187.934 177.086 187.066 177.562C186.207 178.031 185.227 178.266 184.125 178.266H180.891V183H177.176V167.062H184.078ZM183.926 174.973C184.324 174.973 184.688 174.867 185.016 174.656C185.352 174.445 185.617 174.156 185.812 173.789C186.008 173.422 186.105 173.02 186.105 172.582C186.105 172.215 186.008 171.859 185.812 171.516C185.617 171.172 185.352 170.895 185.016 170.684C184.68 170.473 184.316 170.367 183.926 170.367H180.891V174.973H183.926ZM198.727 167.062C199.836 167.062 200.828 167.289 201.703 167.742C202.578 168.195 203.258 168.828 203.742 169.641C204.234 170.453 204.48 171.383 204.48 172.43C204.48 173.5 204.207 174.445 203.66 175.266C203.121 176.078 202.387 176.684 201.457 177.082L204.855 183H200.602L197.812 177.668H197.098H195.445V183H191.73V167.062H198.727ZM198.574 174.562C198.98 174.562 199.352 174.473 199.688 174.293C200.023 174.105 200.285 173.852 200.473 173.531C200.668 173.203 200.766 172.836 200.766 172.43C200.766 172.062 200.668 171.723 200.473 171.41C200.277 171.09 200.012 170.836 199.676 170.648C199.34 170.461 198.973 170.367 198.574 170.367H195.445V174.562H198.574ZM206.777 167.062H210.492V183H206.777V167.062ZM213.762 167.062H217.031L221.988 173.918V173.906L227.016 167.062H230.25V183H226.547V172.98L222.457 178.711H221.52L217.477 172.945V183H213.762V167.062ZM233.52 167.062H244.758V170.355H237.234V173.367H243.691V176.461H237.234V179.695H244.863V183H233.52V167.062ZM254.18 167.062C255.289 167.062 256.281 167.289 257.156 167.742C258.031 168.195 258.711 168.828 259.195 169.641C259.688 170.453 259.934 171.383 259.934 172.43C259.934 173.5 259.66 174.445 259.113 175.266C258.574 176.078 257.84 176.684 256.91 177.082L260.309 183H256.055L253.266 177.668H252.551H250.898V183H247.184V167.062H254.18ZM254.027 174.562C254.434 174.562 254.805 174.473 255.141 174.293C255.477 174.105 255.738 173.852 255.926 173.531C256.121 173.203 256.219 172.836 256.219 172.43C256.219 172.062 256.121 171.723 255.926 171.41C255.73 171.09 255.465 170.836 255.129 170.648C254.793 170.461 254.426 170.367 254.027 170.367H250.898V174.562H254.027ZM139.781 188.062C140.883 188.062 141.867 188.301 142.734 188.777C143.609 189.246 144.293 189.902 144.785 190.746C145.277 191.582 145.523 192.527 145.523 193.582C145.523 194.707 145.281 195.699 144.797 196.559C144.312 197.418 143.637 198.086 142.77 198.562C141.91 199.031 140.93 199.266 139.828 199.266H136.594V204H132.879V188.062H139.781ZM139.629 195.973C140.027 195.973 140.391 195.867 140.719 195.656C141.055 195.445 141.32 195.156 141.516 194.789C141.711 194.422 141.809 194.02 141.809 193.582C141.809 193.215 141.711 192.859 141.516 192.516C141.32 192.172 141.055 191.895 140.719 191.684C140.383 191.473 140.02 191.367 139.629 191.367H136.594V195.973H139.629ZM156.996 204L155.965 201.41H149.32L148.289 204H144.363L150.902 188.051H154.383L160.922 204H156.996ZM150.539 198.328H154.746L152.766 193.348L152.66 192.855H152.625L152.52 193.348L150.539 198.328ZM168.105 204.398C166.566 204.398 165.293 204.145 164.285 203.637C163.285 203.129 162.555 202.473 162.094 201.668C161.641 200.855 161.414 199.988 161.414 199.066H165.129C165.129 199.738 165.387 200.277 165.902 200.684C166.426 201.082 167.156 201.281 168.094 201.281C169.109 201.281 169.848 201.133 170.309 200.836C170.77 200.539 171 200.082 171 199.465C171 199.105 170.879 198.805 170.637 198.562C170.402 198.32 170.059 198.117 169.605 197.953C169.152 197.781 168.551 197.609 167.801 197.438C166.668 197.164 165.676 196.848 164.824 196.488C163.98 196.129 163.266 195.613 162.68 194.941C162.102 194.27 161.812 193.41 161.812 192.363C161.812 191.426 162.039 190.605 162.492 189.902C162.953 189.191 163.645 188.641 164.566 188.25C165.488 187.859 166.621 187.664 167.965 187.664C169.332 187.664 170.48 187.867 171.41 188.273C172.348 188.68 173.047 189.262 173.508 190.02C173.977 190.77 174.211 191.656 174.211 192.68H170.496C170.496 192.172 170.289 191.75 169.875 191.414C169.469 191.07 168.816 190.898 167.918 190.898C166.324 190.898 165.527 191.395 165.527 192.387C165.527 192.723 165.648 193.012 165.891 193.254C166.133 193.488 166.512 193.695 167.027 193.875C167.543 194.047 168.23 194.215 169.09 194.379C170.863 194.738 172.25 195.316 173.25 196.113C174.258 196.902 174.762 198.023 174.762 199.477C174.762 200.516 174.484 201.406 173.93 202.148C173.375 202.891 172.598 203.453 171.598 203.836C170.598 204.211 169.434 204.398 168.105 204.398ZM184.711 204.363C183.141 204.363 181.691 203.992 180.363 203.25C179.035 202.5 177.98 201.484 177.199 200.203C176.426 198.922 176.039 197.523 176.039 196.008C176.039 194.484 176.426 193.086 177.199 191.812C177.98 190.539 179.035 189.531 180.363 188.789C181.691 188.039 183.141 187.664 184.711 187.664C186.273 187.664 187.719 188.039 189.047 188.789C190.375 189.531 191.426 190.539 192.199 191.812C192.98 193.086 193.371 194.484 193.371 196.008C193.371 197.523 192.98 198.922 192.199 200.203C191.426 201.484 190.375 202.5 189.047 203.25C187.719 203.992 186.273 204.363 184.711 204.363ZM184.711 200.965C185.625 200.965 186.457 200.754 187.207 200.332C187.965 199.902 188.562 199.312 189 198.562C189.445 197.805 189.668 196.957 189.668 196.02C189.668 195.074 189.445 194.227 189 193.477C188.562 192.719 187.965 192.129 187.207 191.707C186.457 191.277 185.625 191.062 184.711 191.062C183.797 191.062 182.961 191.277 182.203 191.707C181.445 192.129 180.848 192.719 180.41 193.477C179.973 194.227 179.754 195.074 179.754 196.02C179.754 196.957 179.973 197.805 180.41 198.562C180.855 199.312 181.457 199.902 182.215 200.332C182.973 200.754 183.805 200.965 184.711 200.965ZM196.172 188.039H199.652L197.414 193.418H194.766L196.172 188.039ZM200.613 188.039H204.094L201.855 193.418H199.207L200.613 188.039ZM127.031 230.062H130.746V242.695H137.438V246H127.031V230.062ZM144.035 246.398C142.973 246.398 142.016 246.109 141.164 245.531C140.312 244.953 139.645 244.172 139.16 243.188C138.684 242.195 138.445 241.109 138.445 239.93C138.445 238.758 138.688 237.68 139.172 236.695C139.656 235.711 140.32 234.93 141.164 234.352C142.016 233.766 142.965 233.473 144.012 233.473C144.91 233.473 145.703 233.645 146.391 233.988C147.086 234.324 147.617 234.801 147.984 235.418V233.859H151.406V246H147.973V244.465C147.605 245.082 147.078 245.559 146.391 245.895C145.703 246.23 144.918 246.398 144.035 246.398ZM144.914 243.07C145.453 243.07 145.945 242.934 146.391 242.66C146.836 242.387 147.188 242.012 147.445 241.535C147.703 241.051 147.832 240.516 147.832 239.93C147.832 239.359 147.703 238.836 147.445 238.359C147.188 237.875 146.836 237.492 146.391 237.211C145.945 236.93 145.457 236.789 144.926 236.789C144.387 236.789 143.895 236.918 143.449 237.176C143.012 237.426 142.664 237.789 142.406 238.266C142.148 238.742 142.02 239.297 142.02 239.93C142.02 240.594 142.148 241.164 142.406 241.641C142.672 242.109 143.023 242.465 143.461 242.707C143.906 242.949 144.391 243.07 144.914 243.07ZM159.938 246.387C158.703 246.387 157.594 246.102 156.609 245.531C155.633 244.953 154.867 244.172 154.312 243.188C153.766 242.195 153.492 241.109 153.492 239.93C153.492 238.75 153.766 237.668 154.312 236.684C154.859 235.699 155.625 234.918 156.609 234.34C157.594 233.762 158.707 233.473 159.949 233.473C161.199 233.473 162.316 233.762 163.301 234.34C164.293 234.918 165.066 235.699 165.621 236.684C166.176 237.668 166.453 238.75 166.453 239.93C166.453 241.117 166.176 242.203 165.621 243.188C165.066 244.172 164.293 244.953 163.301 245.531C162.316 246.102 161.195 246.387 159.938 246.387ZM159.973 243.059C160.535 243.059 161.035 242.926 161.473 242.66C161.918 242.395 162.262 242.027 162.504 241.559C162.754 241.082 162.879 240.539 162.879 239.93C162.879 239.32 162.754 238.781 162.504 238.312C162.262 237.836 161.918 237.465 161.473 237.199C161.035 236.934 160.535 236.801 159.973 236.801C159.41 236.801 158.906 236.934 158.461 237.199C158.023 237.465 157.68 237.836 157.43 238.312C157.188 238.781 157.066 239.32 157.066 239.93C157.066 240.539 157.188 241.082 157.43 241.559C157.68 242.027 158.023 242.395 158.461 242.66C158.906 242.926 159.41 243.059 159.973 243.059ZM177.809 233.367H173.344V230.062H185.953V233.367H181.5V246H177.809V233.367ZM190.84 246.398C189.66 246.398 188.668 246.191 187.863 245.777C187.059 245.363 186.461 244.824 186.07 244.16C185.68 243.496 185.484 242.781 185.484 242.016L188.941 242.039C188.973 242.508 189.145 242.879 189.457 243.152C189.777 243.426 190.246 243.562 190.863 243.562C191.918 243.562 192.445 243.195 192.445 242.461C192.445 242.117 192.281 241.867 191.953 241.711C191.633 241.547 191.098 241.414 190.348 241.312C189.012 241.148 187.938 240.758 187.125 240.141C186.32 239.516 185.918 238.602 185.918 237.398C185.918 236.578 186.105 235.875 186.48 235.289C186.863 234.703 187.41 234.254 188.121 233.941C188.84 233.629 189.703 233.473 190.711 233.473C191.703 233.473 192.586 233.645 193.359 233.988C194.133 234.332 194.734 234.816 195.164 235.441C195.594 236.059 195.809 236.777 195.809 237.598L192.281 237.574C192.258 237.215 192.113 236.93 191.848 236.719C191.59 236.5 191.215 236.391 190.723 236.391C190.293 236.391 189.973 236.477 189.762 236.648C189.559 236.82 189.457 237.043 189.457 237.316C189.457 237.559 189.508 237.742 189.609 237.867C189.711 237.992 189.91 238.098 190.207 238.184C190.504 238.27 190.984 238.359 191.648 238.453C192.633 238.594 193.449 238.805 194.098 239.086C194.754 239.359 195.258 239.754 195.609 240.27C195.961 240.777 196.137 241.438 196.137 242.25C196.137 243.164 195.906 243.934 195.445 244.559C194.984 245.176 194.355 245.637 193.559 245.941C192.762 246.246 191.855 246.398 190.84 246.398ZM210.023 239.836C210.023 240.125 210 240.457 209.953 240.832H201C201.141 241.629 201.453 242.238 201.938 242.66C202.422 243.074 203.02 243.281 203.73 243.281C204.855 243.281 205.578 242.867 205.898 242.039H209.766C209.578 242.789 209.215 243.496 208.676 244.16C208.137 244.824 207.449 245.363 206.613 245.777C205.777 246.184 204.84 246.387 203.801 246.387C202.566 246.387 201.461 246.098 200.484 245.52C199.516 244.941 198.758 244.16 198.211 243.176C197.664 242.184 197.391 241.102 197.391 239.93C197.391 238.75 197.66 237.668 198.199 236.684C198.746 235.699 199.508 234.918 200.484 234.34C201.461 233.762 202.566 233.473 203.801 233.473C205.035 233.473 206.121 233.758 207.059 234.328C208.004 234.898 208.734 235.672 209.25 236.648C209.766 237.617 210.023 238.68 210.023 239.836ZM206.332 238.395C206.293 238.027 206.156 237.695 205.922 237.398C205.688 237.094 205.383 236.859 205.008 236.695C204.641 236.523 204.242 236.438 203.812 236.438C203.211 236.438 202.668 236.598 202.184 236.918C201.699 237.238 201.352 237.73 201.141 238.395H206.332Z" fill="black"/>
</svg>
