<svg width="602" height="216" xmlns="http://www.w3.org/2000/svg" xmlns:xlink="http://www.w3.org/1999/xlink" overflow="hidden"><defs><clipPath id="clip0"><rect x="0" y="0" width="602" height="216"/></clipPath></defs><g clip-path="url(#clip0)"><path d="M149.577 234.06 182.816 234.06 182.816 244.309 161.764 244.309 161.764 272.008 181.523 272.008 181.523 282.257 161.764 282.257 161.764 312.08 182.816 312.08 182.816 322.329 149.577 322.329Z" fill="#231815" transform="matrix(1 0 0 1.00155 0 -191.473)"/><path d="M209.777 273.67 212.916 273.67C222.611 273.67 223.903 271.823 223.903 258.62 223.903 245.509 223.165 244.309 215.594 244.309L209.684 244.309 209.684 273.67ZM197.589 234.06 216.517 234.06C234.337 234.06 236.183 238.861 236.183 258.158 236.183 269.977 234.614 275.147 224.55 278.194L224.55 278.471C232.86 279.302 235.629 283.642 235.629 291.952L235.629 311.156C235.629 314.296 235.629 318.728 236.368 322.421L224.919 322.421C223.719 320.205 223.442 317.989 223.442 314.48L223.442 294.537C223.442 286.227 221.964 284.011 213.932 284.011L209.777 284.011 209.777 322.421 197.589 322.421 197.589 234.06Z" fill="#231815" transform="matrix(1 0 0 1.00155 0 -191.473)"/><path d="M252.803 234.06 286.042 234.06 286.042 244.309 264.991 244.309 264.991 272.008 284.842 272.008 284.842 282.257 264.991 282.257 264.991 322.329 252.803 322.329Z" fill="#231815" transform="matrix(1 0 0 1.00155 0 -191.473)"/><path d="M300.631 234.06 312.818 234.06 312.818 322.329 300.631 322.329Z" fill="#231815" transform="matrix(1 0 0 1.00155 0 -191.473)"/><path d="M328.699 256.589C328.699 244.216 332.762 233.321 349.382 233.321 361.477 233.321 367.109 239.415 367.109 249.294L367.109 258.066 355.66 258.066 355.66 252.064C355.66 246.432 353.721 242.924 348.551 242.924 342.18 242.924 340.979 247.448 340.979 258.066L340.979 301.369C340.979 311.803 344.303 313.557 348.181 313.557 352.706 313.557 355.66 310.418 355.66 303.031L355.66 296.937 367.109 296.937 367.109 306.725C367.109 316.05 363.324 323.067 349.105 323.067 333.685 323.067 328.699 314.85 328.699 301.185L328.699 256.589Z" fill="#231815" transform="matrix(1 0 0 1.00155 0 -191.473)"/><path d="M382.067 234.06 394.255 234.06 394.255 322.329 382.067 322.329Z" fill="#231815" transform="matrix(1 0 0 1.00155 0 -191.473)"/><path d="M410.782 234.06 444.021 234.06 444.021 244.309 423.062 244.309 423.062 272.008 442.821 272.008 442.821 282.257 423.062 282.257 423.062 312.08 444.021 312.08 444.021 322.329 410.782 322.329Z" fill="#231815" transform="matrix(1 0 0 1.00155 0 -191.473)"/><path d="M458.794 234.06 475.691 234.06 490.094 307.463 490.371 307.463 490.371 234.06 501.913 234.06 501.913 322.329 484.278 322.329 469.874 247.079 469.597 247.079 469.597 322.329 458.794 322.329Z" fill="#231815" transform="matrix(1 0 0 1.00155 0 -191.473)"/><path d="M516.686 234.06 558.235 234.06 558.235 244.309 543.554 244.309 543.554 322.329 531.367 322.329 531.367 244.309 516.686 244.309Z" fill="#231815" transform="matrix(1 0 0 1.00155 0 -191.473)"/><path d="M18.4663 335.07 18.4663 210.608 90.854 210.608C120.862 210.608 134.988 228.058 134.988 251.418 134.988 276.255 118.738 293.152 83.9291 293.152L67.4942 293.152 67.4942 288.72 79.9589 288.72C104.15 288.72 115.414 275.517 115.414 256.127 115.414 237.845 105.627 224.273 84.7601 224.273L34.5319 224.273 34.5319 321.405 67.8635 321.405 67.8635 335.07 18.4663 335.07Z" fill="#CF0E19" transform="matrix(1 0 0 1.00155 0 -191.473)"/><path d="M67.4942 266.745 67.4942 246.432 71.0951 246.432C78.4816 246.432 81.3439 249.387 81.3439 256.219 81.3439 263.052 78.0199 266.745 69.1561 266.745L67.4942 266.745Z" fill="#231815" transform="matrix(1 0 0 1.00155 0 -191.473)"/><path d="M566.268 238.584 566.268 237.014 567.376 237.014C568.114 237.014 568.299 237.199 568.299 237.661 568.299 238.122 568.114 238.492 567.191 238.492L566.268 238.492ZM567.099 239.507C567.468 239.507 567.745 239.507 567.93 239.784 568.207 240.061 568.207 240.523 568.299 241.077 568.299 241.446 568.484 241.816 568.484 242.185L569.684 242.185C569.499 241.631 569.407 240.985 569.315 240.431 569.222 239.784 569.13 239.415 568.299 239.23L568.299 239.23C569.13 239.046 569.499 238.492 569.499 237.845 569.499 236.46 568.391 236.183 567.283 236.183L565.344 236.183 565.344 242.185 566.268 242.185 566.268 239.6 567.099 239.6ZM567.376 243.385C565.068 243.385 563.129 241.539 563.129 239.138 563.129 236.83 564.975 234.891 567.376 234.891 569.684 234.891 571.623 236.737 571.623 239.138 571.531 241.539 569.684 243.385 567.376 243.385M567.376 244.309C570.238 244.309 572.454 242 572.454 239.23 572.454 236.368 570.146 234.152 567.376 234.152 564.514 234.152 562.298 236.46 562.298 239.23 562.205 242 564.514 244.309 567.376 244.309" fill="#231815" transform="matrix(1 0 0 1.00155 0 -191.473)"/><path d="M32.5006 383.637 23.8215 363.047 28.161 363.047 34.7166 379.389 41.0874 363.047 45.427 363.047 36.3785 383.637Z" fill="#7B7A7B" transform="matrix(1 0 0 1.00155 0 -191.473)"/><path d="M51.7979 363.047 55.6758 363.047 55.6758 383.637 51.7979 383.637 51.7979 363.047ZM51.4285 353.998 56.0451 353.998 56.0451 358.245 51.4285 358.245 51.4285 353.998Z" fill="#7B7A7B" transform="matrix(1 0 0 1.00155 0 -191.473)"/><path d="M71.5567 362.4C75.4347 362.4 79.8666 364.062 79.5896 368.679L75.527 368.679C75.7117 366.094 73.6804 365.17 71.4644 365.17 69.3408 365.17 67.6788 366.186 67.6788 368.494 67.6788 370.802 71.1874 370.987 72.6647 371.449 76.1733 372.557 80.1436 373.018 80.1436 377.635 80.1436 382.713 75.25 384.283 71.0028 384.283 66.6632 384.283 63.0623 382.344 63.1546 377.543L67.2172 377.543C67.3095 380.128 69.0638 381.421 71.3721 381.421 73.6804 381.421 75.9887 380.497 75.9887 377.82 75.9887 373.203 63.4316 376.712 63.4316 368.587 63.5239 364.339 67.8635 362.4 71.5567 362.4" fill="#7B7A7B" transform="matrix(1 0 0 1.00155 0 -191.473)"/><path d="M87.5301 363.047 91.408 363.047 91.408 383.637 87.5301 383.637 87.5301 363.047ZM87.1607 353.998 91.7773 353.998 91.7773 358.245 87.1607 358.245 87.1607 353.998Z" fill="#7B7A7B" transform="matrix(1 0 0 1.00155 0 -191.473)"/><path d="M109.32 381.421C113.937 381.421 115.506 377.727 115.506 373.295 115.506 368.863 114.029 365.17 109.32 365.17 104.704 365.17 103.134 368.863 103.134 373.295 103.226 377.727 104.704 381.421 109.32 381.421M119.569 373.388C119.569 379.759 116.06 384.283 109.32 384.283 102.58 384.283 99.0715 379.759 99.0715 373.388 99.0715 367.017 102.58 362.493 109.32 362.493 116.06 362.493 119.569 366.925 119.569 373.388" fill="#7B7A7B" transform="matrix(1 0 0 1.00155 0 -191.473)"/><path d="M131.203 366.094 131.203 366.094C132.588 363.508 135.45 362.4 137.481 362.4 138.959 362.4 145.237 362.77 145.237 369.418L145.237 383.637 141.359 383.637 141.359 370.71C141.359 367.294 139.882 365.447 136.65 365.447 136.65 365.447 134.527 365.355 132.865 366.925 132.311 367.479 131.203 368.402 131.203 372.464L131.203 383.637 127.325 383.637 127.325 363.047 131.11 363.047 131.11 366.094Z" fill="#7B7A7B" transform="matrix(1 0 0 1.00155 0 -191.473)"/><path d="M210.331 371.356C210.423 367.94 208.853 365.263 205.068 365.263 201.836 365.263 199.897 368.033 199.897 371.356L210.331 371.356ZM199.897 374.126C199.62 377.727 201.098 381.513 205.068 381.513 208.115 381.513 209.592 380.313 210.054 377.358L214.116 377.358C213.47 382.067 209.869 384.375 204.975 384.375 198.328 384.375 195.742 379.666 195.742 373.572 195.742 367.571 198.789 362.493 205.345 362.493 211.531 362.585 214.393 366.555 214.393 372.187L214.393 374.126 199.897 374.126Z" fill="#7B7A7B" transform="matrix(1 0 0 1.00155 0 -191.473)"/><path d="M231.752 373.111 239.877 383.637 234.798 383.637 228.889 375.419 223.072 383.637 218.548 383.637 226.766 372.834 219.01 363.047 224.088 363.047 229.536 370.802 235.352 363.047 239.877 363.047Z" fill="#7B7A7B" transform="matrix(1 0 0 1.00155 0 -191.473)"/><path d="M258.528 371.356C258.62 367.94 257.05 365.263 253.265 365.263 250.033 365.263 248.094 368.033 248.094 371.356L258.528 371.356ZM248.094 374.126C247.817 377.727 249.294 381.513 253.265 381.513 256.312 381.513 257.789 380.313 258.251 377.358L262.313 377.358C261.667 382.067 258.066 384.375 253.172 384.375 246.525 384.375 243.939 379.666 243.939 373.572 243.939 367.571 246.986 362.493 253.542 362.493 259.728 362.585 262.59 366.555 262.59 372.187L262.59 374.126 248.094 374.126Z" fill="#7B7A7B" transform="matrix(1 0 0 1.00155 0 -191.473)"/><path d="M282.257 369.694C282.072 367.109 280.779 365.263 278.01 365.263 274.316 365.263 272.839 368.494 272.839 373.388 272.839 378.281 274.316 381.513 278.01 381.513 280.595 381.513 282.164 379.851 282.441 376.896L286.319 376.896C285.95 381.513 282.534 384.375 278.01 384.375 271.362 384.375 268.776 379.666 268.776 373.572 268.776 367.571 271.823 362.493 278.379 362.493 282.718 362.493 286.042 365.263 286.227 369.694L282.257 369.694Z" fill="#7B7A7B" transform="matrix(1 0 0 1.00155 0 -191.473)"/><path d="M307.279 363.047 311.156 363.047 311.156 383.637 307.371 383.637 307.371 380.59 307.279 380.59C305.709 383.175 303.124 384.283 300.261 384.283 295.922 384.283 293.521 380.959 293.521 376.896L293.521 363.139 297.399 363.139 297.399 375.327C297.399 378.928 298.23 381.513 301.923 381.513 303.493 381.513 305.709 380.682 306.54 378.558 307.279 376.619 307.279 374.219 307.279 373.757L307.279 363.047Z" fill="#7B7A7B" transform="matrix(1 0 0 1.00155 0 -191.473)"/><path d="M320.944 363.047 320.944 358.615 324.821 357.414 324.821 363.047 329.623 362.954 329.623 365.909 324.821 365.909 324.821 379.205C324.821 380.682 325.929 381.421 327.407 381.421 328.053 381.421 328.884 381.328 329.438 381.144L329.438 384.098C328.515 384.098 327.684 384.375 326.76 384.375 325.837 384.375 325.098 384.375 324.175 384.19 323.529 384.098 322.513 383.729 321.867 382.806 321.128 381.79 320.944 381.698 320.944 379.02L320.944 365.909 317.435 365.909 317.435 362.954 320.944 363.047Z" fill="#7B7A7B" transform="matrix(1 0 0 1.00155 0 -191.473)"/><path d="M336.271 363.047 340.148 363.047 340.148 383.637 336.271 383.637 336.271 363.047ZM335.901 353.998 340.518 353.998 340.518 358.245 335.901 358.245 335.901 353.998Z" fill="#7B7A7B" transform="matrix(1 0 0 1.00155 0 -191.473)"/><path d="M358.061 381.421C362.677 381.421 364.247 377.727 364.247 373.295 364.247 368.863 362.77 365.17 358.061 365.17 353.352 365.17 351.875 368.863 351.875 373.295 351.875 377.727 353.444 381.421 358.061 381.421M368.31 373.388C368.31 379.759 364.801 384.283 358.061 384.283 351.321 384.283 347.812 379.759 347.812 373.388 347.812 367.017 351.321 362.493 358.061 362.493 364.801 362.4 368.31 366.925 368.31 373.388" fill="#7B7A7B" transform="matrix(1 0 0 1.00155 0 -191.473)"/><path d="M379.851 366.094 379.851 366.094C381.236 363.508 384.098 362.4 386.129 362.4 387.607 362.4 393.885 362.77 393.885 369.418L393.885 383.637 390.007 383.637 390.007 370.71C390.007 367.294 388.53 365.447 385.298 365.447 385.298 365.447 383.175 365.355 381.513 366.925 380.959 367.479 379.851 368.402 379.851 372.464L379.851 383.637 375.973 383.637 375.973 363.047 379.759 363.047 379.759 366.094Z" fill="#7B7A7B" transform="matrix(1 0 0 1.00155 0 -191.473)"/><path d="M451.685 383.637 443.006 363.047 447.345 363.047 453.901 379.389 460.364 363.047 464.611 363.047 455.563 383.637Z" fill="#7B7A7B" transform="matrix(1 0 0 1.00155 0 -191.473)"/><path d="M478.461 373.665C476.06 373.757 472.921 374.68 472.921 377.635 472.921 380.22 474.675 381.421 476.983 381.421 481.6 381.421 482.431 377.45 482.339 373.572L478.461 373.572ZM482.431 370.895C482.431 367.294 482.246 365.263 478.091 365.263 476.152 365.263 474.306 366.371 474.213 368.587L470.151 368.587C470.336 364.062 473.844 362.493 477.999 362.493 482.246 362.493 486.401 363.785 486.401 369.51L486.401 379.389C486.401 380.313 486.401 381.975 486.586 383.729L483.816 383.729C483.447 383.729 482.708 383.913 482.708 383.452 482.616 382.529 482.523 381.605 482.523 380.682L482.431 380.682C481.138 383.267 478.83 384.375 476.06 384.375 472.459 384.375 468.858 382.529 468.858 378.466 468.858 372.649 474.029 370.987 478.83 370.987L482.431 370.987Z" fill="#7B7A7B" transform="matrix(1 0 0 1.00155 0 -191.473)"/><path d="M494.988 353.998 498.866 353.998 498.866 383.637 494.988 383.637Z" fill="#7B7A7B" transform="matrix(1 0 0 1.00155 0 -191.473)"/><path d="M521.579 363.047 525.457 363.047 525.457 383.637 521.672 383.637 521.672 380.59 521.579 380.59C520.01 383.175 517.425 384.283 514.562 384.283 510.223 384.283 507.822 380.959 507.822 376.896L507.822 363.139 511.7 363.139 511.7 375.327C511.7 378.928 512.531 381.513 516.224 381.513 517.794 381.513 520.01 380.682 520.841 378.558 521.579 376.619 521.579 374.219 521.579 373.757L521.579 363.047Z" fill="#7B7A7B" transform="matrix(1 0 0 1.00155 0 -191.473)"/><path d="M547.709 371.356C547.802 367.94 546.232 365.263 542.446 365.263 539.215 365.263 537.276 368.033 537.276 371.356L547.709 371.356ZM537.276 374.126C536.999 377.727 538.476 381.513 542.446 381.513 545.493 381.513 546.971 380.313 547.432 377.358L551.495 377.358C550.848 382.067 547.248 384.375 542.354 384.375 535.706 384.375 533.121 379.666 533.121 373.572 533.121 367.571 536.168 362.493 542.723 362.493 548.91 362.585 551.772 366.555 551.772 372.187L551.772 374.126 537.276 374.126Z" fill="#7B7A7B" transform="matrix(1 0 0 1.00155 0 -191.473)"/><path d="M159.087 381.144C159.087 382.713 157.887 383.913 156.317 383.913 154.747 383.913 153.547 382.713 153.547 381.144 153.547 379.574 154.747 378.374 156.317 378.374 157.887 378.374 159.087 379.666 159.087 381.144" fill="#7B7A7B" transform="matrix(1 0 0 1.00155 0 -191.473)"/><path d="M407.735 381.144C407.735 382.713 406.535 383.913 404.965 383.913 403.395 383.913 402.195 382.713 402.195 381.144 402.195 379.574 403.395 378.374 404.965 378.374 406.535 378.374 407.735 379.666 407.735 381.144" fill="#7B7A7B" transform="matrix(1 0 0 1.00155 0 -191.473)"/><path d="M564.237 381.144C564.237 382.713 563.036 383.913 561.467 383.913 559.897 383.913 558.697 382.713 558.697 381.144 558.697 379.574 559.897 378.374 561.467 378.374 563.036 378.374 564.237 379.666 564.237 381.144" fill="#7B7A7B" transform="matrix(1 0 0 1.00155 0 -191.473)"/></g></svg>